<svg xmlns="http://www.w3.org/2000/svg" role="img" aria-label="CONTRIBUTION RECORD / 12-WEEK PULSE" viewBox="0 0 680 245">
<text x="24" y="29" fill="#6e7681" text-anchor="start" font-family="Consolas,DejaVu Sans Mono,monospace" font-size="16" font-weight="600">CONTRIBUTION RECORD / 12-WEEK PULSE</text>
<text x="32" y="92" fill="#f0f6fc" text-anchor="start" font-family="Consolas,DejaVu Sans Mono,monospace" font-size="54" font-weight="600">508</text>
<text x="34" y="121" fill="#8b949e" text-anchor="start" font-family="Consolas,DejaVu Sans Mono,monospace" font-size="18">lifetime public</text>
<text x="34" y="143" fill="#8b949e" text-anchor="start" font-family="Consolas,DejaVu Sans Mono,monospace" font-size="18">contributions</text>
<text x="368" y="92" fill="#39d353" text-anchor="start" font-family="Consolas,DejaVu Sans Mono,monospace" font-size="54" font-weight="600">15</text>
<text x="370" y="121" fill="#8b949e" text-anchor="start" font-family="Consolas,DejaVu Sans Mono,monospace" font-size="18">last 7 days</text>
<rect x="27" y="215" width="36" height="15" rx="3" fill="#0e4429"/>
<rect x="81" y="227" width="36" height="3" rx="3" fill="#21262d"/>
<rect x="135" y="207" width="36" height="23" rx="3" fill="#26a641"/>
<rect x="189" y="219" width="36" height="11" rx="3" fill="#0e4429"/>
<rect x="243" y="227" width="36" height="3" rx="3" fill="#21262d"/>
<rect x="297" y="221" width="36" height="9" rx="3" fill="#0e4429"/>
<rect x="351" y="187" width="36" height="43" rx="3" fill="#26a641"/>
<rect x="405" y="207" width="36" height="23" rx="3" fill="#26a641"/>
<rect x="459" y="199" width="36" height="31" rx="3" fill="#26a641"/>
<rect x="513" y="164" width="36" height="66" rx="3" fill="#39d353"/>
<rect x="567" y="179" width="36" height="51" rx="3" fill="#39d353"/>
<rect x="621" y="187" width="36" height="43" rx="3" fill="#26a641"/>
</svg>
